<mxfile host="Electron" agent="Mozilla/5.0 (X11; Linux x86_64) AppleWebKit/537.36 (KHTML, like Gecko) draw.io/27.0.5 Chrome/134.0.6998.205 Electron/35.3.0 Safari/537.36" version="27.0.5">
  <diagram name="Page-1" id="EF95RXOkAe6jpXl8hsVO">
    <mxGraphModel dx="2315" dy="1381" grid="1" gridSize="10" guides="1" tooltips="1" connect="1" arrows="1" fold="1" page="1" pageScale="1" pageWidth="850" pageHeight="1100" math="0" shadow="0">
      <root>
        <mxCell id="0" />
        <mxCell id="1" parent="0" />
        <mxCell id="Xn5FnCG-qSh6JUQlaOpy-32" value="" style="rounded=0;whiteSpace=wrap;html=1;fillColor=#d5e8d4;strokeColor=#82b366;" vertex="1" parent="1">
          <mxGeometry x="190" y="500" width="110" height="140" as="geometry" />
        </mxCell>
        <mxCell id="Xn5FnCG-qSh6JUQlaOpy-5" value="i_command" style="rounded=0;whiteSpace=wrap;html=1;" vertex="1" parent="1">
          <mxGeometry x="180" y="520" width="70" height="20" as="geometry" />
        </mxCell>
        <mxCell id="Xn5FnCG-qSh6JUQlaOpy-38" value="i_pop_data" style="rounded=0;whiteSpace=wrap;html=1;" vertex="1" parent="1">
          <mxGeometry x="180" y="600" width="70" height="20" as="geometry" />
        </mxCell>
        <mxCell id="Xn5FnCG-qSh6JUQlaOpy-41" value="o_data" style="rounded=0;whiteSpace=wrap;html=1;" vertex="1" parent="1">
          <mxGeometry x="260" y="560" width="50" height="20" as="geometry" />
        </mxCell>
        <mxCell id="Xn5FnCG-qSh6JUQlaOpy-35" value="i_push_data" style="rounded=0;whiteSpace=wrap;html=1;" vertex="1" parent="1">
          <mxGeometry x="180" y="560" width="70" height="20" as="geometry" />
        </mxCell>
        <mxCell id="Xn5FnCG-qSh6JUQlaOpy-45" value="" style="endArrow=none;html=1;rounded=0;entryX=0;entryY=0.5;entryDx=0;entryDy=0;exitX=0;exitY=0.5;exitDx=0;exitDy=0;startArrow=none;startFill=0;" edge="1" parent="1" target="Xn5FnCG-qSh6JUQlaOpy-48" source="Xn5FnCG-qSh6JUQlaOpy-5">
          <mxGeometry width="50" height="50" relative="1" as="geometry">
            <mxPoint x="170" y="530" as="sourcePoint" />
            <mxPoint x="460" y="530" as="targetPoint" />
            <Array as="points">
              <mxPoint x="160" y="530" />
              <mxPoint x="160" y="480" />
              <mxPoint x="340" y="480" />
              <mxPoint x="340" y="530" />
              <mxPoint x="360" y="530" />
            </Array>
          </mxGeometry>
        </mxCell>
        <mxCell id="Xn5FnCG-qSh6JUQlaOpy-47" value="" style="rounded=0;whiteSpace=wrap;html=1;fillColor=#d5e8d4;strokeColor=#82b366;" vertex="1" parent="1">
          <mxGeometry x="370" y="500" width="80" height="140" as="geometry" />
        </mxCell>
        <mxCell id="Xn5FnCG-qSh6JUQlaOpy-48" value="" style="rounded=0;whiteSpace=wrap;html=1;" vertex="1" parent="1">
          <mxGeometry x="360" y="520" width="20" height="20" as="geometry" />
        </mxCell>
        <mxCell id="Xn5FnCG-qSh6JUQlaOpy-49" value="" style="endArrow=classic;html=1;rounded=0;entryX=0;entryY=0.5;entryDx=0;entryDy=0;exitX=1;exitY=0.5;exitDx=0;exitDy=0;" edge="1" parent="1" target="Xn5FnCG-qSh6JUQlaOpy-51" source="Xn5FnCG-qSh6JUQlaOpy-41">
          <mxGeometry width="50" height="50" relative="1" as="geometry">
            <mxPoint x="360" y="570" as="sourcePoint" />
            <mxPoint x="460" y="570" as="targetPoint" />
          </mxGeometry>
        </mxCell>
        <mxCell id="Xn5FnCG-qSh6JUQlaOpy-51" value="" style="rounded=0;whiteSpace=wrap;html=1;" vertex="1" parent="1">
          <mxGeometry x="360" y="560" width="20" height="20" as="geometry" />
        </mxCell>
        <mxCell id="Xn5FnCG-qSh6JUQlaOpy-54" value="" style="rounded=0;whiteSpace=wrap;html=1;" vertex="1" parent="1">
          <mxGeometry x="360" y="600" width="20" height="20" as="geometry" />
        </mxCell>
        <mxCell id="Xn5FnCG-qSh6JUQlaOpy-56" value="" style="rounded=0;whiteSpace=wrap;html=1;" vertex="1" parent="1">
          <mxGeometry x="440" y="560" width="20" height="20" as="geometry" />
        </mxCell>
        <mxCell id="Xn5FnCG-qSh6JUQlaOpy-59" value="" style="endArrow=classic;html=1;rounded=0;exitX=1;exitY=0.5;exitDx=0;exitDy=0;entryX=0;entryY=0.5;entryDx=0;entryDy=0;" edge="1" parent="1" source="Xn5FnCG-qSh6JUQlaOpy-56" target="Xn5FnCG-qSh6JUQlaOpy-38">
          <mxGeometry width="50" height="50" relative="1" as="geometry">
            <mxPoint x="450" y="490" as="sourcePoint" />
            <mxPoint x="210" y="610" as="targetPoint" />
            <Array as="points">
              <mxPoint x="470" y="570" />
              <mxPoint x="470" y="660" />
              <mxPoint x="160" y="660" />
              <mxPoint x="160" y="610" />
            </Array>
          </mxGeometry>
        </mxCell>
        <mxCell id="Xn5FnCG-qSh6JUQlaOpy-61" value="" style="rounded=0;whiteSpace=wrap;html=1;fillColor=#d5e8d4;strokeColor=#82b366;" vertex="1" parent="1">
          <mxGeometry x="510" y="500" width="80" height="140" as="geometry" />
        </mxCell>
        <mxCell id="Xn5FnCG-qSh6JUQlaOpy-62" value="" style="rounded=0;whiteSpace=wrap;html=1;" vertex="1" parent="1">
          <mxGeometry x="500" y="520" width="20" height="20" as="geometry" />
        </mxCell>
        <mxCell id="Xn5FnCG-qSh6JUQlaOpy-63" value="" style="rounded=0;whiteSpace=wrap;html=1;" vertex="1" parent="1">
          <mxGeometry x="500" y="560" width="20" height="20" as="geometry" />
        </mxCell>
        <mxCell id="Xn5FnCG-qSh6JUQlaOpy-64" value="" style="rounded=0;whiteSpace=wrap;html=1;" vertex="1" parent="1">
          <mxGeometry x="500" y="600" width="20" height="20" as="geometry" />
        </mxCell>
        <mxCell id="Xn5FnCG-qSh6JUQlaOpy-65" value="" style="rounded=0;whiteSpace=wrap;html=1;" vertex="1" parent="1">
          <mxGeometry x="580" y="560" width="20" height="20" as="geometry" />
        </mxCell>
        <mxCell id="Xn5FnCG-qSh6JUQlaOpy-66" value="" style="endArrow=classic;html=1;rounded=0;exitX=1;exitY=0.5;exitDx=0;exitDy=0;entryX=0;entryY=0.5;entryDx=0;entryDy=0;" edge="1" parent="1" source="Xn5FnCG-qSh6JUQlaOpy-65">
          <mxGeometry width="50" height="50" relative="1" as="geometry">
            <mxPoint x="580" y="490" as="sourcePoint" />
            <mxPoint x="360" y="610" as="targetPoint" />
            <Array as="points">
              <mxPoint x="610" y="570" />
              <mxPoint x="610" y="670" />
              <mxPoint x="340" y="670" />
              <mxPoint x="340" y="610" />
            </Array>
          </mxGeometry>
        </mxCell>
        <mxCell id="Xn5FnCG-qSh6JUQlaOpy-68" value="" style="rounded=0;whiteSpace=wrap;html=1;fillColor=#d5e8d4;strokeColor=#82b366;" vertex="1" parent="1">
          <mxGeometry x="730" y="500" width="80" height="140" as="geometry" />
        </mxCell>
        <mxCell id="Xn5FnCG-qSh6JUQlaOpy-69" value="" style="rounded=0;whiteSpace=wrap;html=1;" vertex="1" parent="1">
          <mxGeometry x="720" y="520" width="20" height="20" as="geometry" />
        </mxCell>
        <mxCell id="Xn5FnCG-qSh6JUQlaOpy-70" value="" style="rounded=0;whiteSpace=wrap;html=1;" vertex="1" parent="1">
          <mxGeometry x="720" y="560" width="20" height="20" as="geometry" />
        </mxCell>
        <mxCell id="Xn5FnCG-qSh6JUQlaOpy-71" value="" style="rounded=0;whiteSpace=wrap;html=1;" vertex="1" parent="1">
          <mxGeometry x="720" y="600" width="20" height="20" as="geometry" />
        </mxCell>
        <mxCell id="Xn5FnCG-qSh6JUQlaOpy-72" value="" style="rounded=0;whiteSpace=wrap;html=1;" vertex="1" parent="1">
          <mxGeometry x="800" y="560" width="20" height="20" as="geometry" />
        </mxCell>
        <mxCell id="Xn5FnCG-qSh6JUQlaOpy-75" value="" style="endArrow=classic;html=1;rounded=0;entryX=0;entryY=0.5;entryDx=0;entryDy=0;" edge="1" parent="1" target="Xn5FnCG-qSh6JUQlaOpy-64">
          <mxGeometry width="50" height="50" relative="1" as="geometry">
            <mxPoint x="650" y="680" as="sourcePoint" />
            <mxPoint x="520" y="660" as="targetPoint" />
            <Array as="points">
              <mxPoint x="480" y="680" />
              <mxPoint x="480" y="610" />
            </Array>
          </mxGeometry>
        </mxCell>
        <mxCell id="Xn5FnCG-qSh6JUQlaOpy-76" value="" style="endArrow=classic;html=1;rounded=0;entryX=0;entryY=0.5;entryDx=0;entryDy=0;" edge="1" parent="1" target="Xn5FnCG-qSh6JUQlaOpy-70">
          <mxGeometry width="50" height="50" relative="1" as="geometry">
            <mxPoint x="690" y="570" as="sourcePoint" />
            <mxPoint x="520" y="660" as="targetPoint" />
          </mxGeometry>
        </mxCell>
        <mxCell id="Xn5FnCG-qSh6JUQlaOpy-77" value="" style="endArrow=none;html=1;rounded=0;" edge="1" parent="1">
          <mxGeometry width="50" height="50" relative="1" as="geometry">
            <mxPoint x="650" y="480" as="sourcePoint" />
            <mxPoint x="340" y="480" as="targetPoint" />
          </mxGeometry>
        </mxCell>
        <mxCell id="Xn5FnCG-qSh6JUQlaOpy-78" value="" style="endArrow=none;html=1;rounded=0;entryX=0;entryY=0.5;entryDx=0;entryDy=0;startFill=0;" edge="1" parent="1" target="Xn5FnCG-qSh6JUQlaOpy-69">
          <mxGeometry width="50" height="50" relative="1" as="geometry">
            <mxPoint x="690" y="480" as="sourcePoint" />
            <mxPoint x="520" y="660" as="targetPoint" />
            <Array as="points">
              <mxPoint x="700" y="480" />
              <mxPoint x="700" y="530" />
            </Array>
          </mxGeometry>
        </mxCell>
        <mxCell id="Xn5FnCG-qSh6JUQlaOpy-80" value="" style="endArrow=none;dashed=1;html=1;dashPattern=1 3;strokeWidth=2;rounded=0;" edge="1" parent="1">
          <mxGeometry width="50" height="50" relative="1" as="geometry">
            <mxPoint x="650" y="480" as="sourcePoint" />
            <mxPoint x="690" y="480" as="targetPoint" />
          </mxGeometry>
        </mxCell>
        <mxCell id="Xn5FnCG-qSh6JUQlaOpy-81" value="" style="endArrow=none;dashed=1;html=1;dashPattern=1 3;strokeWidth=2;rounded=0;" edge="1" parent="1">
          <mxGeometry width="50" height="50" relative="1" as="geometry">
            <mxPoint x="650" y="570" as="sourcePoint" />
            <mxPoint x="690" y="570" as="targetPoint" />
          </mxGeometry>
        </mxCell>
        <mxCell id="Xn5FnCG-qSh6JUQlaOpy-82" value="" style="endArrow=none;dashed=1;html=1;dashPattern=1 3;strokeWidth=2;rounded=0;" edge="1" parent="1">
          <mxGeometry width="50" height="50" relative="1" as="geometry">
            <mxPoint x="650" y="680" as="sourcePoint" />
            <mxPoint x="690" y="680" as="targetPoint" />
          </mxGeometry>
        </mxCell>
        <mxCell id="Xn5FnCG-qSh6JUQlaOpy-83" value="" style="endArrow=none;html=1;rounded=0;" edge="1" parent="1">
          <mxGeometry width="50" height="50" relative="1" as="geometry">
            <mxPoint x="610" y="570" as="sourcePoint" />
            <mxPoint x="650" y="570" as="targetPoint" />
          </mxGeometry>
        </mxCell>
        <mxCell id="Xn5FnCG-qSh6JUQlaOpy-85" value="" style="endArrow=none;html=1;rounded=0;entryX=1;entryY=0.5;entryDx=0;entryDy=0;" edge="1" parent="1" target="Xn5FnCG-qSh6JUQlaOpy-72">
          <mxGeometry width="50" height="50" relative="1" as="geometry">
            <mxPoint x="690" y="680" as="sourcePoint" />
            <mxPoint x="520" y="660" as="targetPoint" />
            <Array as="points">
              <mxPoint x="840" y="680" />
              <mxPoint x="840" y="570" />
            </Array>
          </mxGeometry>
        </mxCell>
        <mxCell id="Xn5FnCG-qSh6JUQlaOpy-86" value="" style="endArrow=classic;html=1;rounded=0;entryX=0;entryY=0.5;entryDx=0;entryDy=0;" edge="1" parent="1" target="Xn5FnCG-qSh6JUQlaOpy-71">
          <mxGeometry width="50" height="50" relative="1" as="geometry">
            <mxPoint x="700" y="610" as="sourcePoint" />
            <mxPoint x="520" y="660" as="targetPoint" />
          </mxGeometry>
        </mxCell>
        <mxCell id="Xn5FnCG-qSh6JUQlaOpy-88" value="0" style="text;html=1;align=center;verticalAlign=middle;whiteSpace=wrap;rounded=0;" vertex="1" parent="1">
          <mxGeometry x="680" y="600" width="20" height="20" as="geometry" />
        </mxCell>
        <mxCell id="Xn5FnCG-qSh6JUQlaOpy-90" value="" style="endArrow=classic;html=1;rounded=0;entryX=0;entryY=0.5;entryDx=0;entryDy=0;" edge="1" parent="1" target="Xn5FnCG-qSh6JUQlaOpy-63">
          <mxGeometry width="50" height="50" relative="1" as="geometry">
            <mxPoint x="470" y="570" as="sourcePoint" />
            <mxPoint x="510" y="660" as="targetPoint" />
          </mxGeometry>
        </mxCell>
        <mxCell id="Xn5FnCG-qSh6JUQlaOpy-91" value="" style="endArrow=none;html=1;rounded=0;entryX=0;entryY=0.5;entryDx=0;entryDy=0;startFill=0;" edge="1" parent="1" target="Xn5FnCG-qSh6JUQlaOpy-62">
          <mxGeometry width="50" height="50" relative="1" as="geometry">
            <mxPoint x="480" y="480" as="sourcePoint" />
            <mxPoint x="510" y="640" as="targetPoint" />
            <Array as="points">
              <mxPoint x="480" y="530" />
            </Array>
          </mxGeometry>
        </mxCell>
        <mxCell id="Xn5FnCG-qSh6JUQlaOpy-93" value="" style="rounded=0;whiteSpace=wrap;html=1;fillColor=#dae8fc;strokeColor=#6c8ebf;" vertex="1" parent="1">
          <mxGeometry x="10" y="350" width="120" height="290" as="geometry" />
        </mxCell>
        <mxCell id="Xn5FnCG-qSh6JUQlaOpy-95" value="" style="endArrow=classic;html=1;rounded=0;entryX=0;entryY=0.5;entryDx=0;entryDy=0;" edge="1" parent="1" target="Xn5FnCG-qSh6JUQlaOpy-96">
          <mxGeometry width="50" height="50" relative="1" as="geometry">
            <mxPoint x="330" y="570" as="sourcePoint" />
            <mxPoint x="-80" y="680" as="targetPoint" />
            <Array as="points">
              <mxPoint x="330" y="670" />
              <mxPoint x="-20" y="670" />
              <mxPoint x="-20" y="610" />
            </Array>
          </mxGeometry>
        </mxCell>
        <mxCell id="Xn5FnCG-qSh6JUQlaOpy-168" value="31 * 32" style="edgeLabel;html=1;align=center;verticalAlign=middle;resizable=0;points=[];" vertex="1" connectable="0" parent="Xn5FnCG-qSh6JUQlaOpy-95">
          <mxGeometry x="0.2679" y="2" relative="1" as="geometry">
            <mxPoint as="offset" />
          </mxGeometry>
        </mxCell>
        <mxCell id="Xn5FnCG-qSh6JUQlaOpy-96" value="i_pop_data" style="rounded=0;whiteSpace=wrap;html=1;" vertex="1" parent="1">
          <mxGeometry y="600" width="70" height="20" as="geometry" />
        </mxCell>
        <mxCell id="Xn5FnCG-qSh6JUQlaOpy-97" value="i_command" style="rounded=0;whiteSpace=wrap;html=1;" vertex="1" parent="1">
          <mxGeometry y="370" width="70" height="20" as="geometry" />
        </mxCell>
        <mxCell id="Xn5FnCG-qSh6JUQlaOpy-99" value="i_w_ena" style="rounded=0;whiteSpace=wrap;html=1;" vertex="1" parent="1">
          <mxGeometry y="520" width="70" height="20" as="geometry" />
        </mxCell>
        <mxCell id="Xn5FnCG-qSh6JUQlaOpy-101" value="o_reg" style="rounded=0;whiteSpace=wrap;html=1;" vertex="1" parent="1">
          <mxGeometry x="90" y="560" width="50" height="20" as="geometry" />
        </mxCell>
        <mxCell id="Xn5FnCG-qSh6JUQlaOpy-102" value="" style="endArrow=classic;html=1;rounded=0;exitX=1;exitY=0.5;exitDx=0;exitDy=0;entryX=0;entryY=0.5;entryDx=0;entryDy=0;" edge="1" parent="1" source="Xn5FnCG-qSh6JUQlaOpy-101" target="Xn5FnCG-qSh6JUQlaOpy-35">
          <mxGeometry width="50" height="50" relative="1" as="geometry">
            <mxPoint x="280" y="480" as="sourcePoint" />
            <mxPoint x="330" y="430" as="targetPoint" />
          </mxGeometry>
        </mxCell>
        <mxCell id="Xn5FnCG-qSh6JUQlaOpy-103" value="i_w_data" style="rounded=0;whiteSpace=wrap;html=1;" vertex="1" parent="1">
          <mxGeometry y="560" width="70" height="20" as="geometry" />
        </mxCell>
        <mxCell id="Xn5FnCG-qSh6JUQlaOpy-108" value="o_a_data" style="rounded=0;whiteSpace=wrap;html=1;" vertex="1" parent="1">
          <mxGeometry x="80" y="410" width="60" height="20" as="geometry" />
        </mxCell>
        <mxCell id="Xn5FnCG-qSh6JUQlaOpy-109" value="o_b_data" style="rounded=0;whiteSpace=wrap;html=1;" vertex="1" parent="1">
          <mxGeometry x="80" y="450" width="60" height="20" as="geometry" />
        </mxCell>
        <mxCell id="Xn5FnCG-qSh6JUQlaOpy-110" value="o_a_data" style="shape=step;perimeter=stepPerimeter;whiteSpace=wrap;html=1;fixedSize=1;size=10;fillColor=#f5f5f5;fontColor=#333333;strokeColor=#666666;" vertex="1" parent="1">
          <mxGeometry x="180" y="410" width="90" height="20" as="geometry" />
        </mxCell>
        <mxCell id="Xn5FnCG-qSh6JUQlaOpy-111" value="" style="endArrow=none;html=1;rounded=0;entryX=0;entryY=0.5;entryDx=0;entryDy=0;exitX=1;exitY=0.5;exitDx=0;exitDy=0;" edge="1" parent="1" source="Xn5FnCG-qSh6JUQlaOpy-108" target="Xn5FnCG-qSh6JUQlaOpy-110">
          <mxGeometry width="50" height="50" relative="1" as="geometry">
            <mxPoint x="390" y="490" as="sourcePoint" />
            <mxPoint x="440" y="440" as="targetPoint" />
          </mxGeometry>
        </mxCell>
        <mxCell id="Xn5FnCG-qSh6JUQlaOpy-112" value="o_a_data" style="shape=step;perimeter=stepPerimeter;whiteSpace=wrap;html=1;fixedSize=1;size=10;fillColor=#f5f5f5;fontColor=#333333;strokeColor=#666666;" vertex="1" parent="1">
          <mxGeometry x="180" y="450" width="90" height="20" as="geometry" />
        </mxCell>
        <mxCell id="Xn5FnCG-qSh6JUQlaOpy-113" value="" style="endArrow=none;html=1;rounded=0;entryX=0;entryY=0.5;entryDx=0;entryDy=0;exitX=1;exitY=0.5;exitDx=0;exitDy=0;" edge="1" parent="1" source="Xn5FnCG-qSh6JUQlaOpy-109" target="Xn5FnCG-qSh6JUQlaOpy-112">
          <mxGeometry width="50" height="50" relative="1" as="geometry">
            <mxPoint x="390" y="490" as="sourcePoint" />
            <mxPoint x="440" y="440" as="targetPoint" />
          </mxGeometry>
        </mxCell>
        <mxCell id="Xn5FnCG-qSh6JUQlaOpy-114" value="i_b_addr" style="rounded=0;whiteSpace=wrap;html=1;" vertex="1" parent="1">
          <mxGeometry y="450" width="70" height="20" as="geometry" />
        </mxCell>
        <mxCell id="Xn5FnCG-qSh6JUQlaOpy-115" value="i_a_addr" style="rounded=0;whiteSpace=wrap;html=1;" vertex="1" parent="1">
          <mxGeometry y="410" width="70" height="20" as="geometry" />
        </mxCell>
        <mxCell id="Xn5FnCG-qSh6JUQlaOpy-116" value="i_command" style="shape=step;perimeter=stepPerimeter;whiteSpace=wrap;html=1;fixedSize=1;size=10;fillColor=#f5f5f5;fontColor=#333333;strokeColor=#666666;" vertex="1" parent="1">
          <mxGeometry x="-130" y="370" width="90" height="20" as="geometry" />
        </mxCell>
        <mxCell id="Xn5FnCG-qSh6JUQlaOpy-122" style="edgeStyle=orthogonalEdgeStyle;rounded=0;orthogonalLoop=1;jettySize=auto;html=1;exitX=1;exitY=0.5;exitDx=0;exitDy=0;entryX=0;entryY=0.5;entryDx=0;entryDy=0;endArrow=none;startFill=0;" edge="1" parent="1" source="Xn5FnCG-qSh6JUQlaOpy-117" target="Xn5FnCG-qSh6JUQlaOpy-115">
          <mxGeometry relative="1" as="geometry" />
        </mxCell>
        <mxCell id="Xn5FnCG-qSh6JUQlaOpy-117" value="i_a_addr" style="shape=step;perimeter=stepPerimeter;whiteSpace=wrap;html=1;fixedSize=1;size=10;fillColor=#f5f5f5;fontColor=#333333;strokeColor=#666666;" vertex="1" parent="1">
          <mxGeometry x="-130" y="410" width="90" height="20" as="geometry" />
        </mxCell>
        <mxCell id="Xn5FnCG-qSh6JUQlaOpy-123" style="edgeStyle=orthogonalEdgeStyle;rounded=0;orthogonalLoop=1;jettySize=auto;html=1;exitX=1;exitY=0.5;exitDx=0;exitDy=0;entryX=0;entryY=0.5;entryDx=0;entryDy=0;endArrow=none;startFill=0;" edge="1" parent="1" source="Xn5FnCG-qSh6JUQlaOpy-118" target="Xn5FnCG-qSh6JUQlaOpy-114">
          <mxGeometry relative="1" as="geometry" />
        </mxCell>
        <mxCell id="Xn5FnCG-qSh6JUQlaOpy-118" value="i_command" style="shape=step;perimeter=stepPerimeter;whiteSpace=wrap;html=1;fixedSize=1;size=10;fillColor=#f5f5f5;fontColor=#333333;strokeColor=#666666;" vertex="1" parent="1">
          <mxGeometry x="-130" y="450" width="90" height="20" as="geometry" />
        </mxCell>
        <mxCell id="Xn5FnCG-qSh6JUQlaOpy-124" style="edgeStyle=orthogonalEdgeStyle;rounded=0;orthogonalLoop=1;jettySize=auto;html=1;exitX=1;exitY=0.5;exitDx=0;exitDy=0;entryX=0;entryY=0.5;entryDx=0;entryDy=0;endArrow=none;startFill=0;" edge="1" parent="1" source="Xn5FnCG-qSh6JUQlaOpy-119" target="Xn5FnCG-qSh6JUQlaOpy-99">
          <mxGeometry relative="1" as="geometry" />
        </mxCell>
        <mxCell id="Xn5FnCG-qSh6JUQlaOpy-119" value="i_w_ena" style="shape=step;perimeter=stepPerimeter;whiteSpace=wrap;html=1;fixedSize=1;size=10;fillColor=#f5f5f5;fontColor=#333333;strokeColor=#666666;" vertex="1" parent="1">
          <mxGeometry x="-130" y="520" width="90" height="20" as="geometry" />
        </mxCell>
        <mxCell id="Xn5FnCG-qSh6JUQlaOpy-125" style="edgeStyle=orthogonalEdgeStyle;rounded=0;orthogonalLoop=1;jettySize=auto;html=1;exitX=1;exitY=0.5;exitDx=0;exitDy=0;entryX=0;entryY=0.5;entryDx=0;entryDy=0;endArrow=none;startFill=0;" edge="1" parent="1" source="Xn5FnCG-qSh6JUQlaOpy-120" target="Xn5FnCG-qSh6JUQlaOpy-103">
          <mxGeometry relative="1" as="geometry" />
        </mxCell>
        <mxCell id="Xn5FnCG-qSh6JUQlaOpy-120" value="i_w_data" style="shape=step;perimeter=stepPerimeter;whiteSpace=wrap;html=1;fixedSize=1;size=10;fillColor=#f5f5f5;fontColor=#333333;strokeColor=#666666;" vertex="1" parent="1">
          <mxGeometry x="-130" y="560" width="90" height="20" as="geometry" />
        </mxCell>
        <mxCell id="Xn5FnCG-qSh6JUQlaOpy-121" value="" style="endArrow=none;html=1;rounded=0;entryX=0;entryY=0.5;entryDx=0;entryDy=0;exitX=1;exitY=0.5;exitDx=0;exitDy=0;" edge="1" parent="1" source="Xn5FnCG-qSh6JUQlaOpy-116" target="Xn5FnCG-qSh6JUQlaOpy-97">
          <mxGeometry width="50" height="50" relative="1" as="geometry">
            <mxPoint x="390" y="660" as="sourcePoint" />
            <mxPoint x="440" y="610" as="targetPoint" />
          </mxGeometry>
        </mxCell>
        <mxCell id="Xn5FnCG-qSh6JUQlaOpy-127" value="" style="endArrow=none;html=1;rounded=0;" edge="1" parent="1">
          <mxGeometry width="50" height="50" relative="1" as="geometry">
            <mxPoint x="160" y="480" as="sourcePoint" />
            <mxPoint x="-20" y="380" as="targetPoint" />
            <Array as="points">
              <mxPoint x="160" y="340" />
              <mxPoint x="-20" y="340" />
            </Array>
          </mxGeometry>
        </mxCell>
        <mxCell id="Xn5FnCG-qSh6JUQlaOpy-128" value="1" style="rounded=0;whiteSpace=wrap;html=1;fillColor=#f8cecc;strokeColor=#b85450;" vertex="1" parent="1">
          <mxGeometry x="290.34" y="760" width="40" height="40" as="geometry" />
        </mxCell>
        <mxCell id="Xn5FnCG-qSh6JUQlaOpy-129" value="2" style="rounded=0;whiteSpace=wrap;html=1;fillColor=#f8cecc;strokeColor=#b85450;" vertex="1" parent="1">
          <mxGeometry x="290.34" y="800" width="40" height="40" as="geometry" />
        </mxCell>
        <mxCell id="Xn5FnCG-qSh6JUQlaOpy-130" value="3" style="rounded=0;whiteSpace=wrap;html=1;fillColor=#f8cecc;strokeColor=#b85450;" vertex="1" parent="1">
          <mxGeometry x="290.34" y="840" width="40" height="40" as="geometry" />
        </mxCell>
        <mxCell id="Xn5FnCG-qSh6JUQlaOpy-131" value="" style="endArrow=none;html=1;rounded=0;" edge="1" parent="1">
          <mxGeometry width="50" height="50" relative="1" as="geometry">
            <mxPoint x="300.34" y="760" as="sourcePoint" />
            <mxPoint x="320.34" y="760" as="targetPoint" />
            <Array as="points">
              <mxPoint x="310.34" y="770" />
            </Array>
          </mxGeometry>
        </mxCell>
        <mxCell id="Xn5FnCG-qSh6JUQlaOpy-133" value="" style="endArrow=none;html=1;rounded=0;" edge="1" parent="1">
          <mxGeometry width="50" height="50" relative="1" as="geometry">
            <mxPoint x="300.34" y="800" as="sourcePoint" />
            <mxPoint x="320.34" y="800" as="targetPoint" />
            <Array as="points">
              <mxPoint x="310.34" y="810" />
            </Array>
          </mxGeometry>
        </mxCell>
        <mxCell id="Xn5FnCG-qSh6JUQlaOpy-134" value="" style="endArrow=none;html=1;rounded=0;" edge="1" parent="1">
          <mxGeometry width="50" height="50" relative="1" as="geometry">
            <mxPoint x="300.34" y="840" as="sourcePoint" />
            <mxPoint x="320.34" y="840" as="targetPoint" />
            <Array as="points">
              <mxPoint x="310.34" y="850" />
            </Array>
          </mxGeometry>
        </mxCell>
        <mxCell id="Xn5FnCG-qSh6JUQlaOpy-135" value="32" style="rounded=0;whiteSpace=wrap;html=1;fillColor=#f8cecc;strokeColor=#b85450;" vertex="1" parent="1">
          <mxGeometry x="290.34" y="920" width="40" height="40" as="geometry" />
        </mxCell>
        <mxCell id="Xn5FnCG-qSh6JUQlaOpy-136" value="" style="endArrow=none;html=1;rounded=0;" edge="1" parent="1">
          <mxGeometry width="50" height="50" relative="1" as="geometry">
            <mxPoint x="300.34" y="920" as="sourcePoint" />
            <mxPoint x="320.34" y="920" as="targetPoint" />
            <Array as="points">
              <mxPoint x="310.34" y="930" />
            </Array>
          </mxGeometry>
        </mxCell>
        <mxCell id="Xn5FnCG-qSh6JUQlaOpy-137" value="" style="endArrow=none;html=1;rounded=0;exitX=0;exitY=0.25;exitDx=0;exitDy=0;" edge="1" parent="1" source="Xn5FnCG-qSh6JUQlaOpy-128">
          <mxGeometry width="50" height="50" relative="1" as="geometry">
            <mxPoint x="210.34" y="770" as="sourcePoint" />
            <mxPoint x="250.34" y="770" as="targetPoint" />
          </mxGeometry>
        </mxCell>
        <mxCell id="Xn5FnCG-qSh6JUQlaOpy-138" value="" style="endArrow=none;html=1;rounded=0;exitX=0;exitY=0.25;exitDx=0;exitDy=0;" edge="1" parent="1" source="Xn5FnCG-qSh6JUQlaOpy-129">
          <mxGeometry width="50" height="50" relative="1" as="geometry">
            <mxPoint x="210.34" y="809.71" as="sourcePoint" />
            <mxPoint x="250.34" y="809.71" as="targetPoint" />
          </mxGeometry>
        </mxCell>
        <mxCell id="Xn5FnCG-qSh6JUQlaOpy-139" value="" style="endArrow=none;html=1;rounded=0;exitX=0;exitY=0.25;exitDx=0;exitDy=0;" edge="1" parent="1" source="Xn5FnCG-qSh6JUQlaOpy-130">
          <mxGeometry width="50" height="50" relative="1" as="geometry">
            <mxPoint x="210.34" y="849.71" as="sourcePoint" />
            <mxPoint x="250.34" y="849.71" as="targetPoint" />
          </mxGeometry>
        </mxCell>
        <mxCell id="Xn5FnCG-qSh6JUQlaOpy-140" value="" style="endArrow=none;html=1;rounded=0;exitX=0;exitY=0.25;exitDx=0;exitDy=0;" edge="1" parent="1" source="Xn5FnCG-qSh6JUQlaOpy-135">
          <mxGeometry width="50" height="50" relative="1" as="geometry">
            <mxPoint x="210.34" y="929.71" as="sourcePoint" />
            <mxPoint x="250.34" y="929.71" as="targetPoint" />
          </mxGeometry>
        </mxCell>
        <mxCell id="Xn5FnCG-qSh6JUQlaOpy-141" value="" style="shape=link;html=1;rounded=0;exitX=1;exitY=0.5;exitDx=0;exitDy=0;" edge="1" parent="1">
          <mxGeometry width="100" relative="1" as="geometry">
            <mxPoint x="140" y="770.0000000000002" as="sourcePoint" />
            <mxPoint x="250" y="940" as="targetPoint" />
            <Array as="points">
              <mxPoint x="250" y="770" />
            </Array>
          </mxGeometry>
        </mxCell>
        <mxCell id="Xn5FnCG-qSh6JUQlaOpy-164" value="&amp;nbsp;31&amp;nbsp;" style="edgeLabel;html=1;align=center;verticalAlign=middle;resizable=0;points=[];" vertex="1" connectable="0" parent="Xn5FnCG-qSh6JUQlaOpy-141">
          <mxGeometry x="-0.6783" y="2" relative="1" as="geometry">
            <mxPoint x="-5" y="2" as="offset" />
          </mxGeometry>
        </mxCell>
        <mxCell id="Xn5FnCG-qSh6JUQlaOpy-144" value="" style="endArrow=none;html=1;rounded=0;exitX=0;exitY=0.75;exitDx=0;exitDy=0;" edge="1" parent="1" source="Xn5FnCG-qSh6JUQlaOpy-128">
          <mxGeometry width="50" height="50" relative="1" as="geometry">
            <mxPoint x="270.34" y="790" as="sourcePoint" />
            <mxPoint x="230.34" y="790" as="targetPoint" />
          </mxGeometry>
        </mxCell>
        <mxCell id="Xn5FnCG-qSh6JUQlaOpy-145" value="" style="endArrow=none;html=1;rounded=0;exitX=0;exitY=0.75;exitDx=0;exitDy=0;" edge="1" parent="1" source="Xn5FnCG-qSh6JUQlaOpy-129">
          <mxGeometry width="50" height="50" relative="1" as="geometry">
            <mxPoint x="285.34" y="830" as="sourcePoint" />
            <mxPoint x="230.34" y="829.71" as="targetPoint" />
          </mxGeometry>
        </mxCell>
        <mxCell id="Xn5FnCG-qSh6JUQlaOpy-146" value="" style="endArrow=none;html=1;rounded=0;exitX=0;exitY=0.75;exitDx=0;exitDy=0;" edge="1" parent="1" source="Xn5FnCG-qSh6JUQlaOpy-130">
          <mxGeometry width="50" height="50" relative="1" as="geometry">
            <mxPoint x="270.34" y="870" as="sourcePoint" />
            <mxPoint x="230.34" y="869.71" as="targetPoint" />
          </mxGeometry>
        </mxCell>
        <mxCell id="Xn5FnCG-qSh6JUQlaOpy-147" value="" style="endArrow=none;html=1;rounded=0;exitX=0;exitY=0.75;exitDx=0;exitDy=0;" edge="1" parent="1" source="Xn5FnCG-qSh6JUQlaOpy-135">
          <mxGeometry width="50" height="50" relative="1" as="geometry">
            <mxPoint x="285.34" y="950" as="sourcePoint" />
            <mxPoint x="230.34" y="949.71" as="targetPoint" />
          </mxGeometry>
        </mxCell>
        <mxCell id="Xn5FnCG-qSh6JUQlaOpy-148" value="" style="shape=link;html=1;rounded=0;exitX=1;exitY=0.5;exitDx=0;exitDy=0;" edge="1" parent="1" source="Xn5FnCG-qSh6JUQlaOpy-158">
          <mxGeometry width="100" relative="1" as="geometry">
            <mxPoint x="170" y="810" as="sourcePoint" />
            <mxPoint x="230" y="960" as="targetPoint" />
            <Array as="points">
              <mxPoint x="230" y="810" />
            </Array>
          </mxGeometry>
        </mxCell>
        <mxCell id="Xn5FnCG-qSh6JUQlaOpy-163" value="&amp;nbsp;31 * 32&amp;nbsp;" style="edgeLabel;html=1;align=center;verticalAlign=middle;resizable=0;points=[];" vertex="1" connectable="0" parent="Xn5FnCG-qSh6JUQlaOpy-148">
          <mxGeometry x="-0.6603" y="1" relative="1" as="geometry">
            <mxPoint y="1" as="offset" />
          </mxGeometry>
        </mxCell>
        <mxCell id="Xn5FnCG-qSh6JUQlaOpy-149" value="" style="endArrow=none;dashed=1;html=1;dashPattern=1 3;strokeWidth=2;rounded=0;" edge="1" parent="1">
          <mxGeometry width="50" height="50" relative="1" as="geometry">
            <mxPoint x="310.34" y="910" as="sourcePoint" />
            <mxPoint x="310.34" y="890" as="targetPoint" />
          </mxGeometry>
        </mxCell>
        <mxCell id="Xn5FnCG-qSh6JUQlaOpy-150" value="" style="rounded=0;whiteSpace=wrap;html=1;fillColor=#fff2cc;strokeColor=#d6b656;" vertex="1" parent="1">
          <mxGeometry x="10" y="740" width="120" height="180" as="geometry" />
        </mxCell>
        <mxCell id="Xn5FnCG-qSh6JUQlaOpy-152" value="o_w_ena" style="rounded=0;whiteSpace=wrap;html=1;" vertex="1" parent="1">
          <mxGeometry x="80" y="760" width="60" height="20" as="geometry" />
        </mxCell>
        <mxCell id="Xn5FnCG-qSh6JUQlaOpy-158" value="o_w_data" style="rounded=0;whiteSpace=wrap;html=1;" vertex="1" parent="1">
          <mxGeometry x="80" y="800" width="60" height="20" as="geometry" />
        </mxCell>
        <mxCell id="Xn5FnCG-qSh6JUQlaOpy-159" value="i_w_ena" style="rounded=0;whiteSpace=wrap;html=1;" vertex="1" parent="1">
          <mxGeometry y="800" width="70" height="20" as="geometry" />
        </mxCell>
        <mxCell id="Xn5FnCG-qSh6JUQlaOpy-160" value="i_w_data" style="rounded=0;whiteSpace=wrap;html=1;" vertex="1" parent="1">
          <mxGeometry y="840" width="70" height="20" as="geometry" />
        </mxCell>
        <mxCell id="Xn5FnCG-qSh6JUQlaOpy-161" value="i_pop_data" style="rounded=0;whiteSpace=wrap;html=1;" vertex="1" parent="1">
          <mxGeometry y="880" width="70" height="20" as="geometry" />
        </mxCell>
        <mxCell id="Xn5FnCG-qSh6JUQlaOpy-165" value="" style="shape=link;html=1;rounded=0;" edge="1" parent="1">
          <mxGeometry width="100" relative="1" as="geometry">
            <mxPoint x="-70" y="890" as="sourcePoint" />
            <mxPoint y="889.71" as="targetPoint" />
          </mxGeometry>
        </mxCell>
        <mxCell id="Xn5FnCG-qSh6JUQlaOpy-166" value="&amp;nbsp;31*32&amp;nbsp;" style="edgeLabel;html=1;align=center;verticalAlign=middle;resizable=0;points=[];" vertex="1" connectable="0" parent="Xn5FnCG-qSh6JUQlaOpy-165">
          <mxGeometry x="0.1425" y="-3" relative="1" as="geometry">
            <mxPoint y="-3" as="offset" />
          </mxGeometry>
        </mxCell>
        <mxCell id="Xn5FnCG-qSh6JUQlaOpy-167" value="" style="endArrow=none;html=1;rounded=0;entryX=0;entryY=0.5;entryDx=0;entryDy=0;" edge="1" parent="1">
          <mxGeometry width="50" height="50" relative="1" as="geometry">
            <mxPoint x="-70" y="849.76" as="sourcePoint" />
            <mxPoint y="849.76" as="targetPoint" />
          </mxGeometry>
        </mxCell>
        <mxCell id="Xn5FnCG-qSh6JUQlaOpy-177" value="&amp;nbsp;32&amp;nbsp;" style="edgeLabel;html=1;align=center;verticalAlign=middle;resizable=0;points=[];" vertex="1" connectable="0" parent="Xn5FnCG-qSh6JUQlaOpy-167">
          <mxGeometry x="0.2136" relative="1" as="geometry">
            <mxPoint as="offset" />
          </mxGeometry>
        </mxCell>
        <mxCell id="Xn5FnCG-qSh6JUQlaOpy-179" value="i_command" style="rounded=0;whiteSpace=wrap;html=1;" vertex="1" parent="1">
          <mxGeometry y="760" width="70" height="20" as="geometry" />
        </mxCell>
        <mxCell id="Xn5FnCG-qSh6JUQlaOpy-180" value="" style="shape=link;html=1;rounded=0;" edge="1" parent="1">
          <mxGeometry width="100" relative="1" as="geometry">
            <mxPoint x="230" y="780" as="sourcePoint" />
            <mxPoint x="230" y="840" as="targetPoint" />
          </mxGeometry>
        </mxCell>
        <mxCell id="Xn5FnCG-qSh6JUQlaOpy-181" value="" style="shape=link;html=1;rounded=0;" edge="1" parent="1">
          <mxGeometry width="100" relative="1" as="geometry">
            <mxPoint x="250" y="750" as="sourcePoint" />
            <mxPoint x="250" y="780" as="targetPoint" />
          </mxGeometry>
        </mxCell>
        <mxCell id="Xn5FnCG-qSh6JUQlaOpy-182" value="" style="endArrow=none;html=1;rounded=0;entryX=0;entryY=0.5;entryDx=0;entryDy=0;" edge="1" parent="1">
          <mxGeometry width="50" height="50" relative="1" as="geometry">
            <mxPoint x="-70" y="809.76" as="sourcePoint" />
            <mxPoint y="809.76" as="targetPoint" />
          </mxGeometry>
        </mxCell>
        <mxCell id="Xn5FnCG-qSh6JUQlaOpy-183" value="1" style="edgeLabel;html=1;align=center;verticalAlign=middle;resizable=0;points=[];" vertex="1" connectable="0" parent="Xn5FnCG-qSh6JUQlaOpy-182">
          <mxGeometry x="0.2136" relative="1" as="geometry">
            <mxPoint as="offset" />
          </mxGeometry>
        </mxCell>
        <mxCell id="Xn5FnCG-qSh6JUQlaOpy-184" value="" style="endArrow=none;html=1;rounded=0;entryX=0;entryY=0.5;entryDx=0;entryDy=0;" edge="1" parent="1">
          <mxGeometry width="50" height="50" relative="1" as="geometry">
            <mxPoint x="-70" y="769.76" as="sourcePoint" />
            <mxPoint y="769.76" as="targetPoint" />
          </mxGeometry>
        </mxCell>
        <mxCell id="Xn5FnCG-qSh6JUQlaOpy-185" value="&amp;nbsp;2&amp;nbsp;" style="edgeLabel;html=1;align=center;verticalAlign=middle;resizable=0;points=[];" vertex="1" connectable="0" parent="Xn5FnCG-qSh6JUQlaOpy-184">
          <mxGeometry x="0.2136" relative="1" as="geometry">
            <mxPoint as="offset" />
          </mxGeometry>
        </mxCell>
      </root>
    </mxGraphModel>
  </diagram>
</mxfile>
